# xmcd CD database file
#
# Track frame offsets:
#	150
#	43758
#	74516
#	122865
#	159934
#	214251
#
# Disc length: 3394 seconds
#
# Revision: 0
# Processed by: cddbd v1.5.2PL0 Copyright (c) Steve Scherf et al.
# Submitted via: CDex 1.51
#
DISCID=560d4006
DTITLE=Beatriz Isabel Demoro - Visualizaciones Guiadas I
DYEAR=2005
DGENRE=New Age
TTITLE0=Relajación con la llamita de luz
TTITLE1=Oración al universo para hallar tu misión
TTITLE2=Cascada Curativa
TTITLE3=Concretando dos sueños
TTITLE4=Esfera de luz, más ampliación del aura
TTITLE5=Consulta a tus guias espirituales
EXTD=YEAR: 2005
EXTT0=
EXTT1=
EXTT2=
EXTT3=
EXTT4=
EXTT5=
PLAYORDER=
